<svg id="Layer_1" xmlns="http://www.w3.org/2000/svg" viewBox="0 0 221.67 246.56"><defs><style>.cls-1{fill:#2e58a6;}.cls-2{fill:#fea621;}.cls-3{fill:#4fa0ca;}.cls-4{fill:#999;}</style></defs><path className="cls-1" d="M184.25,125.67H27.28c-13.25,0-23.99-11.08-23.99-24.75v-3.42c-.5-.99-3.57-7.36-.7-14.37,2.41-5.88,8.09-9.95,14.69-10.61,55.65,.08,111.31,.15,166.96,.23,13.25,0,23.99,11.08,23.99,24.75v3.42c0,13.67-10.74,24.75-23.99,24.75Z"/><g><circle className="cls-4" cx="104.81" cy="66.72" r="66.72"/><path className="cls-2" d="M104.81,13.07c-29.63,0-53.65,24.02-53.65,53.65s24.02,53.65,53.65,53.65,53.65-24.02,53.65-53.65S134.44,13.07,104.81,13.07Zm27.68,37.83v23.11h-24.91v21.9c2.08,.83,3.56,2.86,3.56,5.24,0,3.12-2.53,5.65-5.65,5.65s-5.65-2.53-5.65-5.65c0-2.38,1.47-4.41,3.56-5.24v-21.9h-18.93c-.83,2.08-2.86,3.56-5.24,3.56-3.12,0-5.65-2.53-5.65-5.65s2.53-5.65,5.65-5.65c2.38,0,4.41,1.47,5.24,3.56h18.93V37.6c-2.2-.77-3.79-2.86-3.79-5.33,0-3.12,2.53-5.65,5.65-5.65s5.65,2.53,5.65,5.65c0,2.29-1.36,4.26-3.32,5.14v32.41h20.73v-18.93c-2.08-.83-3.56-2.86-3.56-5.24,0-3.12,2.53-5.65,5.65-5.65s5.65,2.53,5.65,5.65c0,2.38-1.47,4.41-3.56,5.24Z"/></g><path className="cls-3" d="M191.7,246.56H29.39C13.17,246.56,.03,233.42,.03,217.21,.03,190.67-.19,171.85,.55,102.82c.04-3.52,.04-6.39,.04-8.22-.62-8.53,.64-10.96,2.01-11.48,2.87-1.09,6.31,6.24,14.18,10.64,5.5,3.08,10.19,3.06,21.46,3.03,0,0,33.32-.1,51.66,0,29.65,.16,30.32,.43,49.19,.33,13.21-.07,34.98-.33,47.68-.33,1.14,0,3.69,.04,7.29,.03,4.94,0,8.67-.03,8.67-.03,5.84-.05,5.8-.12,6.46,0,1.62,.29,6.35,1.15,9.26,4.73,2.27,2.79,2.38,7.04,2.61,15.53,0,.2,0,2.57,0,7.3,0,1.6,0,4.62,0,9.62,0,3.77,0,6.73,0,7.29,0,0,0,6.2,.02,10.63,.05,15.83-.02,44.75-.02,65.32,0,16.21-13.14,29.35-29.35,29.35Z"/><path className="cls-1" d="M181.66,155.56c-5.59,0-10.13,4.54-10.13,10.13v11.14c0,5.59,4.54,10.13,10.13,10.13h40.01v-31.4h-40.01Zm3.02,21.12c-2.99,.11-5.51-2.22-5.63-5.22s2.22-5.51,5.22-5.63,5.51,2.22,5.63,5.22-2.22,5.51-5.22,5.63Z"/></svg>