<?xml version="1.0" encoding="UTF-8"?>
<svg id="Layer_1" data-name="Layer 1" xmlns="http://www.w3.org/2000/svg" viewBox="0 0 909.11 909.11">
  <defs>
    <style>
      .cls-1 {
        fill: #d1d3d4;
      }
    </style>
  </defs>
  <g id="_167277" data-name="167277">
    <path class="cls-1" d="M878.8,424.25c-11.15,0-20.92,6.12-26.18,15.15h-43.51l31.41-31.41c2.55,.7,5.22,1.11,7.98,1.11,16.67,0,30.3-13.64,30.3-30.3s-13.64-30.3-30.3-30.3-30.3,13.64-30.3,30.3c0,2.76,.41,5.43,1.11,7.98l-52.63,52.63h-39.39v-9.09l25.76-25.76c6.06-6.06,6.06-15.15,0-21.21s-15.15-6.06-21.21,0l-27.71,27.71c-4.45,2.48-7.14,7.16-7.14,13.2v15.15h-69.7l16.26-16.26c2.55,.7,5.22,1.11,7.98,1.11,16.67,0,30.3-13.64,30.3-30.3s-13.64-30.3-30.3-30.3-30.3,13.64-30.3,30.3c0,2.76,.41,5.43,1.11,7.98l-37.47,37.47h-40.69c-2.34-13.81-7.83-26.58-15.69-37.56l23.05-23.05h54.55c9.09,0,15.15-6.06,15.15-15.15s-6.06-15.15-15.15-15.15h-24.24l46.97-46.97,9.53,9.53c2.48,4.45,7.16,7.14,13.2,7.14h30.3c9.09,0,15.15-6.06,15.15-15.15s-6.06-15.15-15.15-15.15h-24.24l-7.58-7.58,22.73-22.73h75.56c1.3,2.13,2.86,4.18,4.74,6.06,12.12,12.12,30.3,12.12,42.42,0s12.12-30.3,0-42.42-30.3-12.12-42.42,0c-1.89,1.89-3.44,3.93-4.74,6.06h-45.26l46.61-46.61c9.99,2.89,20.96,.26,29.15-7.94,12.12-12.12,12.12-30.3,0-42.42s-30.3-12.12-42.42,0c-8.2,8.2-10.83,19.16-7.94,29.15l-46.61,46.61v-44.37c2.69-1.43,5.25-3.31,7.58-5.64,12.12-10.61,12.12-30.3,0-42.42s-30.3-12.12-42.42,0c-12.12,12.12-12.12,30.3,0,42.42,1.43,1.43,2.96,2.69,4.55,3.78v76.52l-22.73,22.73-7.58-7.58v-24.24c0-9.09-6.06-15.15-15.15-15.15s-15.15,6.06-15.15,15.15v30.3c0,6.04,2.68,10.72,7.14,13.2l9.53,9.53-46.97,46.97v-24.24c0-9.09-6.06-15.15-15.15-15.15s-15.15,6.06-15.15,15.15v54.55l-23.05,23.05c-10.98-7.86-23.75-13.35-37.56-15.69v-40.69l37.47-37.47c2.55,.7,5.22,1.11,7.98,1.11,16.67,0,30.3-13.64,30.3-30.3s-13.64-30.3-30.3-30.3-30.3,13.64-30.3,30.3c0,2.76,.41,5.43,1.11,7.98l-16.26,16.26v-84.85h15.15c6.04,0,10.72-2.68,13.2-7.14l27.71-27.71c6.06-6.06,6.06-15.15,0-21.21s-15.15-6.06-21.21,0l-25.76,25.76h-9.09v-24.24l52.63-52.63c2.55,.7,5.22,1.11,7.98,1.11,16.67,0,30.3-13.64,30.3-30.3s-13.64-30.3-30.3-30.3-30.31,13.64-30.31,30.31c0,2.76,.41,5.43,1.11,7.98l-31.41,31.41V56.49c9.03-5.26,15.15-15.03,15.15-26.18,0-16.67-13.63-30.3-30.3-30.3s-30.3,13.64-30.3,30.3c0,11.15,6.12,20.92,15.15,26.18v43.51l-31.41-31.41c.7-2.55,1.11-5.22,1.11-7.98,0-16.67-13.64-30.3-30.3-30.3s-30.3,13.64-30.3,30.3,13.64,30.3,30.3,30.3c2.76,0,5.43-.41,7.98-1.11l52.63,52.63v24.24h-9.09l-25.76-25.76c-6.06-6.06-15.15-6.06-21.21,0s-6.06,15.15,0,21.21l27.71,27.71c2.48,4.45,7.16,7.14,13.2,7.14h15.15v84.85l-16.26-16.26c.7-2.55,1.11-5.22,1.11-7.98,0-16.67-13.64-30.3-30.3-30.3s-30.3,13.64-30.3,30.3,13.64,30.3,30.3,30.3c2.76,0,5.43-.41,7.98-1.11l37.47,37.47v40.69c-13.81,2.34-26.58,7.83-37.56,15.69l-23.05-23.05v-54.55c0-9.09-6.06-15.15-15.15-15.15s-15.15,6.06-15.15,15.15v24.24l-46.97-46.97,9.53-9.53c4.45-2.48,7.14-7.16,7.14-13.2v-30.31c0-9.09-6.06-15.15-15.15-15.15s-15.15,6.06-15.15,15.15v24.24l-7.58,7.58-22.73-22.73v-73.82c9.03-5.26,15.15-15.03,15.15-26.18,0-16.67-13.64-30.3-30.3-30.3s-30.3,13.64-30.3,30.3c0,11.15,6.12,20.92,15.15,26.18v43.52l-46.61-46.61c2.89-9.99,.26-20.96-7.94-29.15-12.12-12.12-30.3-12.12-42.42,0s-12.12,30.3,0,42.42c8.2,8.2,19.16,10.83,29.15,7.94l46.61,46.61h-43.75c-1.3-2.13-2.86-4.18-4.74-6.06-12.12-12.12-30.3-12.12-42.42,0s-12.12,30.3,0,42.42c12.12,12.12,30.3,12.12,42.42,0,1.89-1.89,3.44-3.93,4.74-6.06h74.05l22.73,22.73-7.58,7.58h-24.24c-9.09,0-15.15,6.06-15.15,15.15s6.06,15.15,15.15,15.15h30.3c6.04,0,10.72-2.68,13.2-7.14l9.53-9.53,46.97,46.97h-24.24c-9.09,0-15.15,6.06-15.15,15.15s6.06,15.15,15.15,15.15h54.55l23.05,23.05c-7.86,10.98-13.35,23.75-15.69,37.56h-40.69l-37.47-37.47c.7-2.55,1.11-5.22,1.11-7.98,0-16.67-13.64-30.3-30.3-30.3s-30.3,13.64-30.3,30.3,13.64,30.3,30.3,30.3c2.76,0,5.43-.41,7.98-1.11l16.26,16.26h-69.7v-15.15c0-6.04-2.68-10.72-7.14-13.2l-27.71-27.71c-6.06-6.06-15.15-6.06-21.21,0s-6.06,15.15,0,21.21l25.76,25.76v9.09h-39.4l-52.63-52.63c.7-2.55,1.11-5.22,1.11-7.98,0-16.67-13.64-30.3-30.3-30.3s-30.3,13.64-30.3,30.3,13.64,30.3,30.3,30.3c2.76,0,5.43-.41,7.98-1.11l31.41,31.41H56.49c-5.26-9.03-15.03-15.15-26.18-15.15-16.67,0-30.3,13.63-30.3,30.3s13.64,30.3,30.3,30.3c11.15,0,20.92-6.12,26.18-15.15h43.51l-31.41,31.41c-2.55-.7-5.22-1.11-7.98-1.11-16.67,0-30.3,13.64-30.3,30.3s13.64,30.3,30.3,30.3,30.3-13.64,30.3-30.3c0-2.76-.41-5.43-1.11-7.98l52.63-52.63h39.39v9.09l-25.76,25.76c-6.06,6.06-6.06,15.15,0,21.21,3.03,3.03,6.06,4.55,10.61,4.55s7.58-1.51,10.61-4.55l27.71-27.71c4.45-2.48,7.14-7.16,7.14-13.2v-15.15h69.7l-16.26,16.26c-2.55-.7-5.22-1.11-7.98-1.11-16.67,0-30.3,13.64-30.3,30.3s13.64,30.3,30.3,30.3,30.3-13.64,30.3-30.3c0-2.76-.41-5.43-1.11-7.98l37.47-37.47h40.69c2.34,13.81,7.83,26.58,15.69,37.56l-23.05,23.05h-54.55c-9.09,0-15.15,6.06-15.15,15.15s6.06,15.15,15.15,15.15h24.24l-46.97,46.97-9.53-9.53c-2.48-4.45-7.16-7.14-13.2-7.14h-30.3c-9.09,0-15.15,6.06-15.15,15.15s6.06,15.15,15.15,15.15h24.24l7.58,7.58-22.73,22.73h-75.56c-1.3-2.13-2.86-4.18-4.74-6.06-12.12-12.12-30.3-12.12-42.42,0s-12.12,30.3,0,42.42c12.12,12.12,30.3,12.12,42.42,0,1.89-1.89,3.44-3.93,4.74-6.06h45.26l-46.61,46.61c-9.99-2.89-20.96-.26-29.15,7.94-12.12,12.12-12.12,30.3,0,42.42s30.3,12.12,42.42,0c8.2-8.2,10.83-19.16,7.94-29.15l46.61-46.6v44.37c-2.69,1.43-5.25,3.31-7.58,5.64-12.12,10.61-12.12,30.3,0,42.42,12.12,12.12,30.3,12.12,42.42,0s12.12-30.3,0-42.42c-1.43-1.43-2.96-2.69-4.55-3.78v-76.52l22.73-22.73,7.58,7.58v24.24c0,9.09,6.06,15.15,15.15,15.15s15.15-6.06,15.15-15.15v-30.3c0-6.04-2.68-10.72-7.14-13.2l-9.53-9.53,46.97-46.97v24.24c0,9.09,6.06,15.15,15.15,15.15s15.15-6.06,15.15-15.15v-54.55l23.05-23.05c10.98,7.86,23.75,13.35,37.56,15.69v40.69l-37.47,37.47c-2.55-.7-5.22-1.11-7.98-1.11-16.67,0-30.3,13.64-30.3,30.3s13.64,30.3,30.31,30.3,30.3-13.64,30.3-30.3c0-2.76-.41-5.43-1.11-7.98l16.26-16.26v84.85h-15.17c-6.03,0-10.71,2.68-13.19,7.14l-27.71,27.71c-6.06,6.06-6.06,15.15,0,21.21,3.03,3.03,6.06,4.55,10.61,4.55s7.58-1.51,10.61-4.55l25.76-25.76h9.09v24.24l-52.63,52.63c-2.55-.7-5.22-1.11-7.98-1.11-16.67,0-30.3,13.64-30.3,30.3s13.64,30.3,30.3,30.3,30.3-13.64,30.3-30.3c0-2.76-.41-5.43-1.11-7.98l31.41-31.41v43.52c-9.03,5.26-15.15,15.03-15.15,26.18,0,16.67,13.64,30.3,30.3,30.3s30.3-13.64,30.3-30.3c0-11.15-6.12-20.92-15.15-26.18v-43.51l31.41,31.41c-.7,2.55-1.11,5.22-1.11,7.98,0,16.67,13.64,30.3,30.3,30.3s30.3-13.64,30.3-30.3-13.64-30.3-30.3-30.3c-2.76,0-5.43,.41-7.98,1.11l-52.63-52.63v-24.24h9.09l25.76,25.76c3.03,3.03,6.06,4.55,10.61,4.55s7.58-1.51,10.61-4.55c6.06-6.06,6.06-15.15,0-21.21l-27.72-27.71c-2.48-4.45-7.16-7.13-13.19-7.14h-15.17v-84.85l16.26,16.26c-.7,2.55-1.11,5.22-1.11,7.98,0,16.67,13.64,30.3,30.3,30.3s30.3-13.64,30.3-30.3-13.64-30.3-30.3-30.3c-2.76,0-5.43,.41-7.98,1.11l-37.47-37.47v-40.69c13.81-2.34,26.58-7.83,37.56-15.69l23.05,23.05v54.55c0,9.09,6.06,15.15,15.15,15.15s15.15-6.06,15.15-15.15v-24.24l46.97,46.97-9.53,9.53c-4.45,2.48-7.14,7.16-7.14,13.2v30.3c0,9.09,6.06,15.15,15.15,15.15s15.15-6.06,15.15-15.15v-24.24l7.58-7.58,22.73,22.73v73.82c-9.03,5.26-15.15,15.03-15.15,26.18,0,16.67,13.64,30.3,30.3,30.3s30.3-13.64,30.3-30.3c0-11.15-6.12-20.92-15.15-26.18v-43.52l46.61,46.61c-2.89,9.99-.26,20.96,7.94,29.15,12.12,12.12,30.3,12.12,42.42,0s12.12-30.3,0-42.42c-8.2-8.2-19.16-10.83-29.15-7.94l-46.6-46.61h43.75c1.3,2.13,2.86,4.18,4.74,6.06,12.12,12.12,30.3,12.12,42.42,0s12.12-30.3,0-42.42-30.3-12.12-42.42,0c-1.89,1.89-3.44,3.93-4.74,6.06h-74.05l-22.73-22.73,7.58-7.58h24.24c9.09,0,15.15-6.06,15.15-15.15s-6.06-15.15-15.15-15.15h-30.3c-6.04,0-10.72,2.68-13.2,7.14l-9.53,9.53-46.97-46.97h24.24c9.09,0,15.15-6.06,15.15-15.15s-6.06-15.15-15.15-15.15h-54.55l-23.05-23.05c7.86-10.98,13.35-23.75,15.69-37.56h40.69l37.47,37.47c-.7,2.55-1.11,5.22-1.11,7.98,0,16.67,13.64,30.3,30.3,30.3s30.3-13.64,30.3-30.31-13.64-30.3-30.3-30.3c-2.76,0-5.43,.41-7.98,1.11l-16.26-16.26h69.7v15.15c0,6.04,2.68,10.72,7.14,13.2l27.71,27.71c3.03,3.03,6.06,4.55,10.61,4.55s7.58-1.51,10.61-4.55c6.06-6.06,6.06-15.15,0-21.21l-25.76-25.76v-9.09h39.4l52.63,52.63c-.7,2.55-1.11,5.22-1.11,7.98,0,16.67,13.64,30.3,30.3,30.3s30.3-13.64,30.3-30.3-13.64-30.3-30.3-30.3c-2.76,0-5.43,.41-7.98,1.11l-31.41-31.41h43.52c5.26,9.03,15.03,15.15,26.18,15.15,16.67,0,30.3-13.64,30.3-30.3s-13.64-30.3-30.31-30.3Zm-378.98,70.47c-1,.63-1.96,1.37-2.85,2.26s-1.63,1.85-2.26,2.85c-10.71,9.52-24.79,15.33-40.17,15.33s-29.45-5.81-40.17-15.33c-.63-1-1.37-1.96-2.26-2.85s-1.85-1.63-2.85-2.26c-9.52-10.71-15.33-24.79-15.33-40.17s5.86-29.59,15.47-40.32c.97-.59,1.9-1.29,2.71-2.11,.89-.89,1.63-1.85,2.26-2.85,10.71-9.52,24.79-15.33,40.17-15.33s29.45,5.81,40.17,15.33c.63,1,1.37,1.96,2.26,2.85,.99,.99,1.99,1.8,3.03,2.47,9.41,10.69,15.15,24.68,15.15,39.95,0,15.38-5.81,29.45-15.34,40.17Z" vector-effect="non-scaling-stroke"/>
  </g>
</svg>