<svg id="visual" viewBox="0 0 1028 200" width="100%" hight="200"  xmlns="http://www.w3.org/2000/svg" xmlns:xlink="http://www.w3.org/1999/xlink" version="1.1"><path d="M0 39L60 39L60 45L121 45L121 49L181 49L181 33L242 33L242 49L302 49L302 57L363 57L363 35L423 35L423 37L484 37L484 41L544 41L544 47L605 47L605 35L665 35L665 35L726 35L726 65L786 65L786 55L847 55L847 49L907 49L907 39L968 39L968 49L1028 49L1028 53L1028 0L1028 0L968 0L968 0L907 0L907 0L847 0L847 0L786 0L786 0L726 0L726 0L665 0L665 0L605 0L605 0L544 0L544 0L484 0L484 0L423 0L423 0L363 0L363 0L302 0L302 0L242 0L242 0L181 0L181 0L121 0L121 0L60 0L60 0L0 0Z" fill="#4c03bb"></path><path d="M0 65L60 65L60 77L121 77L121 69L181 69L181 65L242 65L242 75L302 75L302 85L363 85L363 65L423 65L423 67L484 67L484 63L544 63L544 67L605 67L605 63L665 63L665 63L726 63L726 95L786 95L786 75L847 75L847 75L907 75L907 57L968 57L968 71L1028 71L1028 79L1028 51L1028 47L968 47L968 37L907 37L907 47L847 47L847 53L786 53L786 63L726 63L726 33L665 33L665 33L605 33L605 45L544 45L544 39L484 39L484 35L423 35L423 33L363 33L363 55L302 55L302 47L242 47L242 31L181 31L181 47L121 47L121 43L60 43L60 37L0 37Z" fill="#7a43ca"></path><path d="M0 85L60 85L60 93L121 93L121 91L181 91L181 81L242 81L242 93L302 93L302 101L363 101L363 81L423 81L423 93L484 93L484 85L544 85L544 91L605 91L605 89L665 89L665 79L726 79L726 119L786 119L786 97L847 97L847 101L907 101L907 79L968 79L968 89L1028 89L1028 99L1028 77L1028 69L968 69L968 55L907 55L907 73L847 73L847 73L786 73L786 93L726 93L726 61L665 61L665 61L605 61L605 65L544 65L544 61L484 61L484 65L423 65L423 63L363 63L363 83L302 83L302 73L242 73L242 63L181 63L181 67L121 67L121 75L60 75L60 63L0 63Z" fill="#a071d8"></path><path d="M0 157L60 157L60 145L121 145L121 147L181 147L181 143L242 143L242 149L302 149L302 151L363 151L363 141L423 141L423 147L484 147L484 145L544 145L544 153L605 153L605 153L665 153L665 141L726 141L726 157L786 157L786 145L847 145L847 151L907 151L907 149L968 149L968 143L1028 143L1028 145L1028 97L1028 87L968 87L968 77L907 77L907 99L847 99L847 95L786 95L786 117L726 117L726 77L665 77L665 87L605 87L605 89L544 89L544 83L484 83L484 91L423 91L423 79L363 79L363 99L302 99L302 91L242 91L242 79L181 79L181 89L121 89L121 91L60 91L60 83L0 83Z" fill="#c19fe6"></path><path d="M0 173L60 173L60 167L121 167L121 163L181 163L181 165L242 165L242 165L302 165L302 171L363 171L363 165L423 165L423 163L484 163L484 167L544 167L544 177L605 177L605 167L665 167L665 165L726 165L726 171L786 171L786 163L847 163L847 167L907 167L907 169L968 169L968 159L1028 159L1028 165L1028 143L1028 141L968 141L968 147L907 147L907 149L847 149L847 143L786 143L786 155L726 155L726 139L665 139L665 151L605 151L605 151L544 151L544 143L484 143L484 145L423 145L423 139L363 139L363 149L302 149L302 147L242 147L242 141L181 141L181 145L121 145L121 143L60 143L60 155L0 155Z" fill="#e1cff3"></path><path d="M0 201L60 201L60 201L121 201L121 201L181 201L181 201L242 201L242 201L302 201L302 201L363 201L363 201L423 201L423 201L484 201L484 201L544 201L544 201L605 201L605 201L665 201L665 201L726 201L726 201L786 201L786 201L847 201L847 201L907 201L907 201L968 201L968 201L1028 201L1028 201L1028 163L1028 157L968 157L968 167L907 167L907 165L847 165L847 161L786 161L786 169L726 169L726 163L665 163L665 165L605 165L605 175L544 175L544 165L484 165L484 161L423 161L423 163L363 163L363 169L302 169L302 163L242 163L242 163L181 163L181 161L121 161L121 165L60 165L60 171L0 171Z" fill="#ffffff"></path></svg>