<?xml version="1.0" encoding="UTF-8"?>
<svg id="Layer_2" data-name="Layer 2" xmlns="http://www.w3.org/2000/svg" viewBox="0 0 80 51.8">
  <defs>
    <style>
      .cls-1 {
        fill: #231f20;
      }

      .cls-2 {
        fill: #ffcb05;
      }
    </style>
  </defs>
  <g id="Layer_1-2" data-name="Layer 1">
    <g>
      <path class="cls-2" d="M9.01,45.03c.7,3.91,10.63,6.05,18.53,4.62,7.37-1.33,15.75-6.25,15.2-10.04-.59-4.05-11.39-6.92-20.2-4.8-6.67,1.6-14.2,6.55-13.54,10.22Z"/>
      <path class="cls-2" d="M65.36,35.05c.72,1.58,2.72,4.91,4.56,4.66,1.62-.22,3.06-3.18,2.63-5.56-.86-4.79-9.12-6.46-9.83-5.39-.25,.38,.52,.99,1.83,4.16,.57,1.37,.49,1.41,.81,2.13Z"/>
      <g>
        <path class="cls-1" d="M67.85,27.21c-1.95-.74-4.34-.91-6.29-.1-2.27,.93-3.57,3.18-3.7,5.57-.1,1.86,.61,3.79,1.74,5.26,.66,.86,2.15,.01,1.48-.86-1.07-1.4-1.76-3.22-1.43-4.99,.4-2.21,2.09-3.67,4.33-3.78,2.05-.1,4.04,.6,5.69,1.81,1.71,1.25,3.34,3.31,3.09,5.56-.21,1.85-1.52,3.42-2.86,4.6-1.71,1.51-3.82,2.62-5.97,3.36-2.28,.78-4.71,1.18-7.12,.94-2.57-.25-5.05-1.33-7.32-2.52-.84-.44-1.65-.92-2.45-1.43,4.56-5.01,7.65-11.22,8.75-17.96,.68-4.18,.78-8.59-.44-12.68-1.33-4.49-4.38-8.61-9.13-9.67-4.47-1-9.5,.3-12.96,3.29-4.22,3.66-4.47,9.18-3.55,14.31,.48,2.7,1.31,5.34,2.42,7.85-3.28,.7-6.51,1.71-9.66,3.04-4.57,1.92-9.15,4.29-12.89,7.6-1.93,1.72-4.07,4.25-3.92,6.91-1.68,.54-3.35,1.09-5.03,1.63-.43,.14-.74,.6-.6,1.05,.14,.43,.6,.75,1.05,.6,1.66-.54,3.33-1.08,4.99-1.62,.05,.11,.09,.23,.16,.34,1.67,3.08,5.83,4.44,8.98,5.3,3.8,1.04,7.71,1.47,11.64,.94,6.37-.86,12.48-3.86,17.3-8.1,.58-.51,1.13-1.04,1.68-1.58,.31,.2,.61,.41,.93,.6,2.26,1.37,4.74,2.59,7.3,3.3,2.69,.75,5.51,.7,8.22,.09,4.36-.98,9.51-3.56,11.5-7.81,2.2-4.69-1.64-9.22-5.94-10.85Zm-35.76-6.55c-1.26-4.45-2.13-9.95,.7-13.99,2.42-3.46,7.02-5.14,11.13-4.93,1.86,.1,3.75,.63,5.27,1.74,1.86,1.36,3.22,3.49,4.04,5.62,1.47,3.81,1.58,8.03,1.06,12.04-.19,1.5-.49,2.97-.88,4.42-6.54-1.23-13.14-1.27-19.57-.11-.7-1.55-1.29-3.15-1.76-4.78Zm5.65,25.3c-2.07-3.09-4.35-6.04-6.83-8.82-.73-.82-1.94,.39-1.21,1.21,2.37,2.66,4.55,5.48,6.53,8.43-1.46,.75-2.97,1.39-4.53,1.91-1.04,.34-2.09,.63-3.16,.85-3.87-3.34-6.41-8.06-6.96-13.16-.12-1.08-1.83-1.1-1.71,0,.55,5.12,2.84,9.93,6.52,13.51-2.52,.31-5.07,.26-7.6-.2-.04-.07-.08-.13-.14-.19-2.49-2.62-3.6-6.33-2.88-9.88,.22-1.08-1.43-1.54-1.65-.45-.71,3.5,.05,7.08,2.04,9.96-2.02-.51-4.02-1.2-5.81-2.24-1.19-.69-2.5-1.65-2.9-3.04-.37-1.28,.21-2.55,.92-3.6,2.28-3.38,6.3-5.68,9.82-7.54,4.66-2.47,9.59-4.28,14.67-5.34,2.67,5.35,6.67,10.05,11.52,13.54-1.98,1.95-4.22,3.64-6.65,5.05Zm7.86-6.29c-4.6-3.26-8.4-7.63-10.98-12.64,4.31-.75,8.72-.96,13.17-.56,1.72,.15,3.44,.4,5.14,.72-1.5,4.62-4,8.87-7.33,12.48Z"/>
        <path class="cls-1" d="M79.97,20.89c-.13-.48-.6-.68-1.05-.6-2.81,.51-5.51,1.61-7.88,3.2-.38,.26-.55,.75-.31,1.17,.22,.38,.79,.57,1.17,.31,2.26-1.52,4.79-2.54,7.47-3.03,.45-.08,.71-.64,.6-1.05Z"/>
      </g>
    </g>
  </g>
</svg>