<svg id="visual" viewBox="0 0 900 600" width="900" height="600" xmlns="http://www.w3.org/2000/svg" xmlns:xlink="http://www.w3.org/1999/xlink" version="1.1"><rect x="0" y="0" width="900"  fill="#ffffff00"></rect><path d="M0 389L21.5 391C43 393 86 397 128.8 391C171.7 385 214.3 369 257.2 372C300 375 343 397 385.8 401.7C428.7 406.3 471.3 393.7 514.2 393.5C557 393.3 600 405.7 642.8 401C685.7 396.3 728.3 374.7 771.2 368.8C814 363 857 373 878.5 378L900 383L900 601L878.5 601C857 601 814 601 771.2 601C728.3 601 685.7 601 642.8 601C600 601 557 601 514.2 601C471.3 601 428.7 601 385.8 601C343 601 300 601 257.2 601C214.3 601 171.7 601 128.8 601C86 601 43 601 21.5 601L0 601Z" fill="#0066ff"></path><path d="M0 409L21.5 414.3C43 419.7 86 430.3 128.8 440.7C171.7 451 214.3 461 257.2 455.2C300 449.3 343 427.7 385.8 417C428.7 406.3 471.3 406.7 514.2 405.8C557 405 600 403 642.8 407.7C685.7 412.3 728.3 423.7 771.2 429.5C814 435.3 857 435.7 878.5 435.8L900 436L900 601L878.5 601C857 601 814 601 771.2 601C728.3 601 685.7 601 642.8 601C600 601 557 601 514.2 601C471.3 601 428.7 601 385.8 601C343 601 300 601 257.2 601C214.3 601 171.7 601 128.8 601C86 601 43 601 21.5 601L0 601Z" fill="#3964fc"></path><path d="M0 506L21.5 500.8C43 495.7 86 485.3 128.8 484.5C171.7 483.7 214.3 492.3 257.2 488C300 483.7 343 466.3 385.8 457.3C428.7 448.3 471.3 447.7 514.2 447.2C557 446.7 600 446.3 642.8 448.8C685.7 451.3 728.3 456.7 771.2 460C814 463.3 857 464.7 878.5 465.3L900 466L900 601L878.5 601C857 601 814 601 771.2 601C728.3 601 685.7 601 642.8 601C600 601 557 601 514.2 601C471.3 601 428.7 601 385.8 601C343 601 300 601 257.2 601C214.3 601 171.7 601 128.8 601C86 601 43 601 21.5 601L0 601Z" fill="#5162f9"></path><path d="M0 503L21.5 507.7C43 512.3 86 521.7 128.8 518.7C171.7 515.7 214.3 500.3 257.2 498.2C300 496 343 507 385.8 506.5C428.7 506 471.3 494 514.2 489.5C557 485 600 488 642.8 498C685.7 508 728.3 525 771.2 523.2C814 521.3 857 500.7 878.5 490.3L900 480L900 601L878.5 601C857 601 814 601 771.2 601C728.3 601 685.7 601 642.8 601C600 601 557 601 514.2 601C471.3 601 428.7 601 385.8 601C343 601 300 601 257.2 601C214.3 601 171.7 601 128.8 601C86 601 43 601 21.5 601L0 601Z" fill="#6360f6"></path><path d="M0 530L21.5 531.8C43 533.7 86 537.3 128.8 544.2C171.7 551 214.3 561 257.2 561.8C300 562.7 343 554.3 385.8 552.8C428.7 551.3 471.3 556.7 514.2 554.5C557 552.3 600 542.7 642.8 541.7C685.7 540.7 728.3 548.3 771.2 549.7C814 551 857 546 878.5 543.5L900 541L900 601L878.5 601C857 601 814 601 771.2 601C728.3 601 685.7 601 642.8 601C600 601 557 601 514.2 601C471.3 601 428.7 601 385.8 601C343 601 300 601 257.2 601C214.3 601 171.7 601 128.8 601C86 601 43 601 21.5 601L0 601Z" fill="#715df2"></path></svg>